<mxfile host="Electron" modified="2024-08-12T01:52:35.200Z" agent="Mozilla/5.0 (Windows NT 10.0; Win64; x64) AppleWebKit/537.36 (KHTML, like Gecko) draw.io/24.1.0 Chrome/120.0.6099.109 Electron/28.1.0 Safari/537.36" etag="QHXAyHUq2qlDARNWSkni" version="24.1.0" type="device">
  <diagram name="Page-1" id="VYfVaIJ4Vb4yRWF1Nvtj">
    <mxGraphModel dx="1120" dy="1693" grid="1" gridSize="10" guides="1" tooltips="1" connect="1" arrows="1" fold="1" page="1" pageScale="1" pageWidth="827" pageHeight="1169" math="0" shadow="0">
      <root>
        <mxCell id="0" />
        <mxCell id="1" parent="0" />
        <mxCell id="WBTJPJw8ypjkMBNxl21J-67" style="edgeStyle=orthogonalEdgeStyle;rounded=0;orthogonalLoop=1;jettySize=auto;html=1;" edge="1" parent="1" source="WBTJPJw8ypjkMBNxl21J-2" target="WBTJPJw8ypjkMBNxl21J-35">
          <mxGeometry relative="1" as="geometry" />
        </mxCell>
        <mxCell id="WBTJPJw8ypjkMBNxl21J-2" value="LOGIN" style="html=1;whiteSpace=wrap;rounded=1;" vertex="1" parent="1">
          <mxGeometry x="400" y="40" width="110" height="50" as="geometry" />
        </mxCell>
        <mxCell id="WBTJPJw8ypjkMBNxl21J-74" style="edgeStyle=orthogonalEdgeStyle;rounded=0;orthogonalLoop=1;jettySize=auto;html=1;entryX=0;entryY=0.5;entryDx=0;entryDy=0;" edge="1" parent="1" source="WBTJPJw8ypjkMBNxl21J-4" target="WBTJPJw8ypjkMBNxl21J-38">
          <mxGeometry relative="1" as="geometry" />
        </mxCell>
        <mxCell id="WBTJPJw8ypjkMBNxl21J-4" value="MAKE EMERGENCY REQUESTS" style="html=1;whiteSpace=wrap;rounded=1;" vertex="1" parent="1">
          <mxGeometry x="400" y="200" width="110" height="50" as="geometry" />
        </mxCell>
        <mxCell id="WBTJPJw8ypjkMBNxl21J-89" style="edgeStyle=orthogonalEdgeStyle;rounded=0;orthogonalLoop=1;jettySize=auto;html=1;entryX=0.5;entryY=1;entryDx=0;entryDy=0;" edge="1" parent="1" source="WBTJPJw8ypjkMBNxl21J-6" target="WBTJPJw8ypjkMBNxl21J-38">
          <mxGeometry relative="1" as="geometry">
            <Array as="points">
              <mxPoint x="765" y="370" />
            </Array>
          </mxGeometry>
        </mxCell>
        <mxCell id="WBTJPJw8ypjkMBNxl21J-6" value="MANAGE USERS" style="html=1;whiteSpace=wrap;rounded=1;" vertex="1" parent="1">
          <mxGeometry x="400" y="360" width="110" height="50" as="geometry" />
        </mxCell>
        <mxCell id="WBTJPJw8ypjkMBNxl21J-8" value="&lt;div&gt;&lt;span style=&quot;background-color: initial;&quot;&gt;CREATE RATINGS&lt;/span&gt;&lt;/div&gt;" style="html=1;whiteSpace=wrap;rounded=1;" vertex="1" parent="1">
          <mxGeometry x="400" y="520" width="110" height="50" as="geometry" />
        </mxCell>
        <mxCell id="WBTJPJw8ypjkMBNxl21J-87" style="edgeStyle=orthogonalEdgeStyle;rounded=0;orthogonalLoop=1;jettySize=auto;html=1;entryX=0;entryY=0.5;entryDx=0;entryDy=0;" edge="1" parent="1" source="WBTJPJw8ypjkMBNxl21J-10" target="WBTJPJw8ypjkMBNxl21J-47">
          <mxGeometry relative="1" as="geometry" />
        </mxCell>
        <mxCell id="WBTJPJw8ypjkMBNxl21J-10" value="MANAGE OFFICE&lt;div&gt;VISITS&lt;/div&gt;" style="html=1;whiteSpace=wrap;rounded=1;" vertex="1" parent="1">
          <mxGeometry x="400" y="680" width="110" height="50" as="geometry" />
        </mxCell>
        <mxCell id="WBTJPJw8ypjkMBNxl21J-92" style="edgeStyle=orthogonalEdgeStyle;rounded=0;orthogonalLoop=1;jettySize=auto;html=1;" edge="1" parent="1" source="WBTJPJw8ypjkMBNxl21J-12" target="WBTJPJw8ypjkMBNxl21J-50">
          <mxGeometry relative="1" as="geometry" />
        </mxCell>
        <mxCell id="WBTJPJw8ypjkMBNxl21J-12" value="MANAGE EMERGENCY RESPONSES" style="html=1;whiteSpace=wrap;rounded=1;" vertex="1" parent="1">
          <mxGeometry x="400" y="840" width="110" height="50" as="geometry" />
        </mxCell>
        <mxCell id="WBTJPJw8ypjkMBNxl21J-63" style="edgeStyle=orthogonalEdgeStyle;rounded=0;orthogonalLoop=1;jettySize=auto;html=1;entryX=0;entryY=0.5;entryDx=0;entryDy=0;" edge="1" parent="1" source="WBTJPJw8ypjkMBNxl21J-20" target="WBTJPJw8ypjkMBNxl21J-2">
          <mxGeometry relative="1" as="geometry" />
        </mxCell>
        <mxCell id="WBTJPJw8ypjkMBNxl21J-69" style="edgeStyle=orthogonalEdgeStyle;rounded=0;orthogonalLoop=1;jettySize=auto;html=1;entryX=0;entryY=0.25;entryDx=0;entryDy=0;" edge="1" parent="1" source="WBTJPJw8ypjkMBNxl21J-20" target="WBTJPJw8ypjkMBNxl21J-6">
          <mxGeometry relative="1" as="geometry">
            <Array as="points">
              <mxPoint x="290" y="300" />
              <mxPoint x="290" y="373" />
            </Array>
          </mxGeometry>
        </mxCell>
        <mxCell id="WBTJPJw8ypjkMBNxl21J-84" style="edgeStyle=orthogonalEdgeStyle;rounded=0;orthogonalLoop=1;jettySize=auto;html=1;entryX=0;entryY=0.5;entryDx=0;entryDy=0;" edge="1" parent="1" source="WBTJPJw8ypjkMBNxl21J-20" target="WBTJPJw8ypjkMBNxl21J-10">
          <mxGeometry relative="1" as="geometry" />
        </mxCell>
        <mxCell id="WBTJPJw8ypjkMBNxl21J-90" style="edgeStyle=orthogonalEdgeStyle;rounded=0;orthogonalLoop=1;jettySize=auto;html=1;entryX=0;entryY=0.5;entryDx=0;entryDy=0;" edge="1" parent="1" source="WBTJPJw8ypjkMBNxl21J-20" target="WBTJPJw8ypjkMBNxl21J-12">
          <mxGeometry relative="1" as="geometry">
            <Array as="points">
              <mxPoint x="240" y="295" />
              <mxPoint x="240" y="865" />
            </Array>
          </mxGeometry>
        </mxCell>
        <mxCell id="WBTJPJw8ypjkMBNxl21J-20" value="ADMIN" style="html=1;whiteSpace=wrap;" vertex="1" parent="1">
          <mxGeometry x="100" y="270" width="110" height="50" as="geometry" />
        </mxCell>
        <mxCell id="WBTJPJw8ypjkMBNxl21J-65" style="edgeStyle=orthogonalEdgeStyle;rounded=0;orthogonalLoop=1;jettySize=auto;html=1;" edge="1" parent="1" target="WBTJPJw8ypjkMBNxl21J-2">
          <mxGeometry relative="1" as="geometry">
            <mxPoint x="210" y="470" as="sourcePoint" />
            <mxPoint x="400" y="80" as="targetPoint" />
            <Array as="points">
              <mxPoint x="270" y="470" />
              <mxPoint x="270" y="80" />
            </Array>
          </mxGeometry>
        </mxCell>
        <mxCell id="WBTJPJw8ypjkMBNxl21J-68" style="edgeStyle=orthogonalEdgeStyle;rounded=0;orthogonalLoop=1;jettySize=auto;html=1;entryX=0;entryY=0.5;entryDx=0;entryDy=0;" edge="1" parent="1" source="WBTJPJw8ypjkMBNxl21J-28" target="WBTJPJw8ypjkMBNxl21J-6">
          <mxGeometry relative="1" as="geometry">
            <Array as="points">
              <mxPoint x="290" y="450" />
              <mxPoint x="290" y="385" />
            </Array>
          </mxGeometry>
        </mxCell>
        <mxCell id="WBTJPJw8ypjkMBNxl21J-72" style="edgeStyle=orthogonalEdgeStyle;rounded=0;orthogonalLoop=1;jettySize=auto;html=1;entryX=0;entryY=0.5;entryDx=0;entryDy=0;" edge="1" parent="1" source="WBTJPJw8ypjkMBNxl21J-28" target="WBTJPJw8ypjkMBNxl21J-4">
          <mxGeometry relative="1" as="geometry">
            <Array as="points">
              <mxPoint x="320" y="430" />
              <mxPoint x="320" y="225" />
            </Array>
          </mxGeometry>
        </mxCell>
        <mxCell id="WBTJPJw8ypjkMBNxl21J-80" style="edgeStyle=orthogonalEdgeStyle;rounded=0;orthogonalLoop=1;jettySize=auto;html=1;entryX=0;entryY=0.25;entryDx=0;entryDy=0;" edge="1" parent="1" source="WBTJPJw8ypjkMBNxl21J-28" target="WBTJPJw8ypjkMBNxl21J-8">
          <mxGeometry relative="1" as="geometry">
            <Array as="points">
              <mxPoint x="300" y="440" />
              <mxPoint x="300" y="533" />
            </Array>
          </mxGeometry>
        </mxCell>
        <mxCell id="WBTJPJw8ypjkMBNxl21J-85" style="edgeStyle=orthogonalEdgeStyle;rounded=0;orthogonalLoop=1;jettySize=auto;html=1;entryX=0;entryY=0.75;entryDx=0;entryDy=0;" edge="1" parent="1" source="WBTJPJw8ypjkMBNxl21J-28" target="WBTJPJw8ypjkMBNxl21J-10">
          <mxGeometry relative="1" as="geometry">
            <Array as="points">
              <mxPoint x="290" y="455" />
              <mxPoint x="290" y="718" />
            </Array>
          </mxGeometry>
        </mxCell>
        <mxCell id="WBTJPJw8ypjkMBNxl21J-91" style="edgeStyle=orthogonalEdgeStyle;rounded=0;orthogonalLoop=1;jettySize=auto;html=1;entryX=0;entryY=0.25;entryDx=0;entryDy=0;" edge="1" parent="1" source="WBTJPJw8ypjkMBNxl21J-28" target="WBTJPJw8ypjkMBNxl21J-12">
          <mxGeometry relative="1" as="geometry">
            <Array as="points">
              <mxPoint x="260" y="455" />
              <mxPoint x="260" y="853" />
            </Array>
          </mxGeometry>
        </mxCell>
        <mxCell id="WBTJPJw8ypjkMBNxl21J-28" value="STAFF" style="html=1;whiteSpace=wrap;" vertex="1" parent="1">
          <mxGeometry x="100" y="430" width="110" height="50" as="geometry" />
        </mxCell>
        <mxCell id="WBTJPJw8ypjkMBNxl21J-66" style="edgeStyle=orthogonalEdgeStyle;rounded=0;orthogonalLoop=1;jettySize=auto;html=1;" edge="1" parent="1" source="WBTJPJw8ypjkMBNxl21J-33" target="WBTJPJw8ypjkMBNxl21J-2">
          <mxGeometry relative="1" as="geometry">
            <mxPoint x="400" y="50" as="targetPoint" />
            <Array as="points">
              <mxPoint x="280" y="615" />
              <mxPoint x="280" y="50" />
            </Array>
          </mxGeometry>
        </mxCell>
        <mxCell id="WBTJPJw8ypjkMBNxl21J-73" style="edgeStyle=orthogonalEdgeStyle;rounded=0;orthogonalLoop=1;jettySize=auto;html=1;entryX=0;entryY=0.75;entryDx=0;entryDy=0;" edge="1" parent="1">
          <mxGeometry relative="1" as="geometry">
            <mxPoint x="210" y="607.5" as="sourcePoint" />
            <mxPoint x="400" y="230" as="targetPoint" />
            <Array as="points">
              <mxPoint x="310" y="607.5" />
              <mxPoint x="310" y="230.5" />
            </Array>
          </mxGeometry>
        </mxCell>
        <mxCell id="WBTJPJw8ypjkMBNxl21J-78" style="edgeStyle=orthogonalEdgeStyle;rounded=0;orthogonalLoop=1;jettySize=auto;html=1;entryX=0;entryY=0.5;entryDx=0;entryDy=0;" edge="1" parent="1" source="WBTJPJw8ypjkMBNxl21J-33" target="WBTJPJw8ypjkMBNxl21J-8">
          <mxGeometry relative="1" as="geometry" />
        </mxCell>
        <mxCell id="WBTJPJw8ypjkMBNxl21J-86" style="edgeStyle=orthogonalEdgeStyle;rounded=0;orthogonalLoop=1;jettySize=auto;html=1;entryX=0;entryY=0.25;entryDx=0;entryDy=0;" edge="1" parent="1" source="WBTJPJw8ypjkMBNxl21J-33" target="WBTJPJw8ypjkMBNxl21J-10">
          <mxGeometry relative="1" as="geometry">
            <Array as="points">
              <mxPoint x="330" y="615" />
              <mxPoint x="330" y="693" />
            </Array>
          </mxGeometry>
        </mxCell>
        <mxCell id="WBTJPJw8ypjkMBNxl21J-33" value="USERS" style="html=1;whiteSpace=wrap;" vertex="1" parent="1">
          <mxGeometry x="100" y="590" width="110" height="50" as="geometry" />
        </mxCell>
        <mxCell id="WBTJPJw8ypjkMBNxl21J-34" value="" style="group" vertex="1" connectable="0" parent="1">
          <mxGeometry x="670" y="35" width="190" height="60" as="geometry" />
        </mxCell>
        <mxCell id="WBTJPJw8ypjkMBNxl21J-35" value="USER&amp;nbsp;&lt;div&gt;RECORDS&lt;/div&gt;" style="rounded=0;whiteSpace=wrap;html=1;" vertex="1" parent="WBTJPJw8ypjkMBNxl21J-34">
          <mxGeometry width="190" height="60" as="geometry" />
        </mxCell>
        <mxCell id="WBTJPJw8ypjkMBNxl21J-36" value="" style="line;strokeWidth=2;direction=south;html=1;" vertex="1" parent="WBTJPJw8ypjkMBNxl21J-34">
          <mxGeometry x="40" width="10" height="60" as="geometry" />
        </mxCell>
        <mxCell id="WBTJPJw8ypjkMBNxl21J-37" value="" style="group" vertex="1" connectable="0" parent="1">
          <mxGeometry x="670" y="195" width="190" height="60" as="geometry" />
        </mxCell>
        <mxCell id="WBTJPJw8ypjkMBNxl21J-38" value="EMERGENCY&amp;nbsp;&lt;div&gt;RECORDS&lt;/div&gt;" style="rounded=0;whiteSpace=wrap;html=1;" vertex="1" parent="WBTJPJw8ypjkMBNxl21J-37">
          <mxGeometry width="190" height="60" as="geometry" />
        </mxCell>
        <mxCell id="WBTJPJw8ypjkMBNxl21J-39" value="" style="line;strokeWidth=2;direction=south;html=1;" vertex="1" parent="WBTJPJw8ypjkMBNxl21J-37">
          <mxGeometry x="40" width="10" height="60" as="geometry" />
        </mxCell>
        <mxCell id="WBTJPJw8ypjkMBNxl21J-43" value="" style="group" vertex="1" connectable="0" parent="1">
          <mxGeometry x="670" y="520" width="190" height="60" as="geometry" />
        </mxCell>
        <mxCell id="WBTJPJw8ypjkMBNxl21J-44" value="RATING&amp;nbsp;&lt;div&gt;RECORDS&lt;/div&gt;" style="rounded=0;whiteSpace=wrap;html=1;" vertex="1" parent="WBTJPJw8ypjkMBNxl21J-43">
          <mxGeometry width="190" height="60" as="geometry" />
        </mxCell>
        <mxCell id="WBTJPJw8ypjkMBNxl21J-45" value="" style="line;strokeWidth=2;direction=south;html=1;" vertex="1" parent="WBTJPJw8ypjkMBNxl21J-43">
          <mxGeometry x="40" width="10" height="60" as="geometry" />
        </mxCell>
        <mxCell id="WBTJPJw8ypjkMBNxl21J-46" value="" style="group" vertex="1" connectable="0" parent="1">
          <mxGeometry x="670" y="700" width="190" height="60" as="geometry" />
        </mxCell>
        <mxCell id="WBTJPJw8ypjkMBNxl21J-47" value="&lt;div&gt;OFFICE VISIT&lt;/div&gt;&lt;div&gt;RECORDS&lt;/div&gt;" style="rounded=0;whiteSpace=wrap;html=1;" vertex="1" parent="WBTJPJw8ypjkMBNxl21J-46">
          <mxGeometry width="190" height="60" as="geometry" />
        </mxCell>
        <mxCell id="WBTJPJw8ypjkMBNxl21J-48" value="" style="line;strokeWidth=2;direction=south;html=1;" vertex="1" parent="WBTJPJw8ypjkMBNxl21J-46">
          <mxGeometry x="40" width="10" height="60" as="geometry" />
        </mxCell>
        <mxCell id="WBTJPJw8ypjkMBNxl21J-49" value="" style="group" vertex="1" connectable="0" parent="1">
          <mxGeometry x="670" y="835" width="190" height="60" as="geometry" />
        </mxCell>
        <mxCell id="WBTJPJw8ypjkMBNxl21J-50" value="&lt;div&gt;EMERGENCY&amp;nbsp;&lt;/div&gt;&lt;div&gt;RESPONSE&lt;/div&gt;&lt;div&gt;RECORDS&lt;/div&gt;" style="rounded=0;whiteSpace=wrap;html=1;" vertex="1" parent="WBTJPJw8ypjkMBNxl21J-49">
          <mxGeometry width="190" height="60" as="geometry" />
        </mxCell>
        <mxCell id="WBTJPJw8ypjkMBNxl21J-51" value="" style="line;strokeWidth=2;direction=south;html=1;" vertex="1" parent="WBTJPJw8ypjkMBNxl21J-49">
          <mxGeometry x="40" width="10" height="60" as="geometry" />
        </mxCell>
        <mxCell id="WBTJPJw8ypjkMBNxl21J-70" style="edgeStyle=orthogonalEdgeStyle;rounded=0;orthogonalLoop=1;jettySize=auto;html=1;entryX=1;entryY=0.5;entryDx=0;entryDy=0;" edge="1" parent="1" source="WBTJPJw8ypjkMBNxl21J-35" target="WBTJPJw8ypjkMBNxl21J-6">
          <mxGeometry relative="1" as="geometry">
            <Array as="points">
              <mxPoint x="590" y="80" />
              <mxPoint x="590" y="385" />
            </Array>
          </mxGeometry>
        </mxCell>
        <mxCell id="WBTJPJw8ypjkMBNxl21J-71" style="edgeStyle=orthogonalEdgeStyle;rounded=0;orthogonalLoop=1;jettySize=auto;html=1;entryX=0.5;entryY=0;entryDx=0;entryDy=0;" edge="1" parent="1" source="WBTJPJw8ypjkMBNxl21J-35" target="WBTJPJw8ypjkMBNxl21J-2">
          <mxGeometry relative="1" as="geometry">
            <Array as="points">
              <mxPoint x="765" y="-10" />
              <mxPoint x="455" y="-10" />
            </Array>
          </mxGeometry>
        </mxCell>
        <mxCell id="WBTJPJw8ypjkMBNxl21J-75" style="edgeStyle=orthogonalEdgeStyle;rounded=0;orthogonalLoop=1;jettySize=auto;html=1;entryX=0.5;entryY=0;entryDx=0;entryDy=0;" edge="1" parent="1" source="WBTJPJw8ypjkMBNxl21J-38" target="WBTJPJw8ypjkMBNxl21J-4">
          <mxGeometry relative="1" as="geometry">
            <Array as="points">
              <mxPoint x="765" y="160" />
              <mxPoint x="455" y="160" />
            </Array>
          </mxGeometry>
        </mxCell>
        <mxCell id="WBTJPJw8ypjkMBNxl21J-76" style="edgeStyle=orthogonalEdgeStyle;rounded=0;orthogonalLoop=1;jettySize=auto;html=1;entryX=1;entryY=0.5;entryDx=0;entryDy=0;" edge="1" parent="1" source="WBTJPJw8ypjkMBNxl21J-38" target="WBTJPJw8ypjkMBNxl21J-50">
          <mxGeometry relative="1" as="geometry">
            <Array as="points">
              <mxPoint x="920" y="225" />
              <mxPoint x="920" y="865" />
            </Array>
          </mxGeometry>
        </mxCell>
        <mxCell id="WBTJPJw8ypjkMBNxl21J-77" style="edgeStyle=orthogonalEdgeStyle;rounded=0;orthogonalLoop=1;jettySize=auto;html=1;entryX=1;entryY=0.5;entryDx=0;entryDy=0;" edge="1" parent="1" source="WBTJPJw8ypjkMBNxl21J-50" target="WBTJPJw8ypjkMBNxl21J-12">
          <mxGeometry relative="1" as="geometry" />
        </mxCell>
        <mxCell id="WBTJPJw8ypjkMBNxl21J-81" style="edgeStyle=orthogonalEdgeStyle;rounded=0;orthogonalLoop=1;jettySize=auto;html=1;entryX=0;entryY=0.4;entryDx=0;entryDy=0;entryPerimeter=0;" edge="1" parent="1" source="WBTJPJw8ypjkMBNxl21J-8" target="WBTJPJw8ypjkMBNxl21J-44">
          <mxGeometry relative="1" as="geometry" />
        </mxCell>
        <mxCell id="WBTJPJw8ypjkMBNxl21J-82" style="edgeStyle=orthogonalEdgeStyle;rounded=0;orthogonalLoop=1;jettySize=auto;html=1;entryX=1;entryY=0.5;entryDx=0;entryDy=0;" edge="1" parent="1" source="WBTJPJw8ypjkMBNxl21J-47" target="WBTJPJw8ypjkMBNxl21J-44">
          <mxGeometry relative="1" as="geometry">
            <Array as="points">
              <mxPoint x="880" y="730" />
              <mxPoint x="880" y="550" />
            </Array>
          </mxGeometry>
        </mxCell>
        <mxCell id="WBTJPJw8ypjkMBNxl21J-83" style="edgeStyle=orthogonalEdgeStyle;rounded=0;orthogonalLoop=1;jettySize=auto;html=1;entryX=0.5;entryY=0;entryDx=0;entryDy=0;" edge="1" parent="1" source="WBTJPJw8ypjkMBNxl21J-44" target="WBTJPJw8ypjkMBNxl21J-8">
          <mxGeometry relative="1" as="geometry">
            <Array as="points">
              <mxPoint x="765" y="470" />
              <mxPoint x="455" y="470" />
            </Array>
          </mxGeometry>
        </mxCell>
        <mxCell id="WBTJPJw8ypjkMBNxl21J-88" style="edgeStyle=orthogonalEdgeStyle;rounded=0;orthogonalLoop=1;jettySize=auto;html=1;entryX=0.5;entryY=0;entryDx=0;entryDy=0;" edge="1" parent="1" source="WBTJPJw8ypjkMBNxl21J-47" target="WBTJPJw8ypjkMBNxl21J-10">
          <mxGeometry relative="1" as="geometry">
            <Array as="points">
              <mxPoint x="765" y="660" />
              <mxPoint x="455" y="660" />
            </Array>
          </mxGeometry>
        </mxCell>
        <mxCell id="WBTJPJw8ypjkMBNxl21J-93" style="edgeStyle=orthogonalEdgeStyle;rounded=0;orthogonalLoop=1;jettySize=auto;html=1;entryX=0.5;entryY=0;entryDx=0;entryDy=0;" edge="1" parent="1" source="WBTJPJw8ypjkMBNxl21J-50" target="WBTJPJw8ypjkMBNxl21J-12">
          <mxGeometry relative="1" as="geometry">
            <Array as="points">
              <mxPoint x="765" y="820" />
              <mxPoint x="455" y="820" />
            </Array>
          </mxGeometry>
        </mxCell>
      </root>
    </mxGraphModel>
  </diagram>
</mxfile>
